<svg version="1.2" xmlns="http://www.w3.org/2000/svg" viewBox="0 0 96 96" width="96" height="96"><style></style><filter id="f0"><feFlood flood-color="#ffffff" flood-opacity="1" /><feBlend mode="normal" in2="SourceGraphic"/><feComposite in2="SourceAlpha" operator="in" /></filter><g filter="url(#f0)"><path fill-rule="evenodd" d="m50.6 80.5v5.5c0 1.5-1.2 2.8-2.7 2.8-1.5 0-2.8-1.3-2.8-2.8v-5.5c0-1.5 1.3-2.8 2.8-2.8 1.5 0 2.7 1.3 2.7 2.8zm-12.4-2.7c0 1.5-1.2 2.7-2.7 2.7-1.5 0-2.8-1.2-2.8-2.7v-5.5c0-1.6 1.3-2.8 2.8-2.8 1.5 0 2.7 1.2 2.7 2.8zm24.8-5.6v5.5c0 1.5-1.2 2.7-2.8 2.7-1.5 0-2.7-1.2-2.7-2.7v-5.5c0-1.6 1.2-2.8 2.7-2.8 1.6 0 2.8 1.2 2.8 2.8zm24.8-31.7c-0.1 8.4-6.8 15.2-15.2 15.2h-9.6v5.5c0 1.5-1.2 2.7-2.8 2.7-1.5 0-2.7-1.2-2.7-2.7v-5.5h-19.3v5.5c0 1.5-1.2 2.7-2.7 2.7-1.5 0-2.8-1.2-2.8-2.7v-5.5h-9.6c-8.3 0-15.1-6.8-15.1-15.2 0-8.3 6.8-15.1 15.1-15.1 0.7 0 1.6 0.1 2.3 0.3 2.9-9.9 11.9-16.8 22.5-16.8 10.5 0 19.5 6.9 22.4 16.8 0.8-0.2 1.6-0.3 2.3-0.3 8.4 0 15.1 6.8 15.1 15.1zm-5.5 0c0-5.3-4.3-9.6-9.6-9.6-0.4 0-1 0.1-1.6 0.2v2.5c0 1.6-1.2 2.8-2.8 2.8-1.5 0-2.7-1.2-2.7-2.8v-4.4c-1.5-8.6-8.9-14.8-17.6-14.8-8.8 0-16.2 6.2-17.6 14.8v4.5c0 1.5-1.3 2.7-2.8 2.7-1.5 0-2.7-1.2-2.7-2.8v-2.5c-0.7-0.1-1.3-0.2-1.7-0.2-5.3 0-9.6 4.3-9.6 9.6 0 5.3 4.3 9.7 9.6 9.7h49.5c5.3 0 9.7-4.4 9.7-9.7zm-31.7 23.4v5.5c0 1.5-1.2 2.8-2.7 2.8-1.5 0-2.8-1.3-2.8-2.8v-5.5c0-1.5 1.3-2.7 2.8-2.7 1.5 0 2.7 1.2 2.7 2.7z"/></g></svg>