<svg version="1.2" xmlns="http://www.w3.org/2000/svg" viewBox="0 0 24 24" width="24" height="24"><style>.a{fill:#fff}</style><path class="a" d="m15 3.3c1.8-0.4 4.1-0.4 7.2 0.4 0.6 0.1 0.9 0.6 0.8 1.2-0.2 0.5-0.7 0.8-1.2 0.7-2.9-0.7-4.9-0.7-6.4-0.4-1.4 0.3-2.5 1-3.6 1.6l-0.1 0.1c-1.1 0.7-2.3 1.4-3.9 1.7-1.6 0.2-3.6 0-6.2-1.1-0.5-0.2-0.7-0.7-0.5-1.3 0.2-0.5 0.8-0.7 1.3-0.5 2.4 0.9 3.9 1.1 5.1 0.9 1.2-0.2 2.1-0.8 3.2-1.5 1.2-0.6 2.5-1.4 4.3-1.8z"/><path class="a" d="m22.2 7.6c-3.1-0.7-5.4-0.8-7.2-0.4-1.8 0.4-3.1 1.2-4.3 1.9-1.1 0.7-2 1.3-3.2 1.5-1.2 0.2-2.7 0-5.1-0.9-0.5-0.2-1.1 0-1.3 0.5-0.2 0.5 0 1.1 0.5 1.3 2.6 1.1 4.6 1.3 6.2 1 1.6-0.2 2.8-1 3.9-1.6l0.1-0.1c1.1-0.7 2.2-1.3 3.6-1.6 1.5-0.3 3.5-0.3 6.4 0.4 0.5 0.1 1-0.2 1.2-0.7 0.1-0.6-0.2-1.1-0.8-1.3z"/><path fill-rule="evenodd" class="a" d="m19.8 10.5q0.2 0.1 0.5 0.6c0.3 0.4 0.7 1 1.1 1.7 0.3 0.6 0.7 1.3 1.1 2 0.2 0.7 0.5 1.5 0.5 2.2q0 0.3-0.1 0.6c0 0.4-0.1 0.9-0.4 1.4-0.2 0.4-0.6 1-1.2 1.4-0.6 0.4-1.4 0.6-2.3 0.6-0.9 0-1.7-0.2-2.3-0.6-0.6-0.4-1-1-1.2-1.4-0.3-0.5-0.4-1-0.4-1.4q-0.1-0.3-0.1-0.6c0-0.7 0.3-1.5 0.5-2.2 0.4-0.7 0.8-1.4 1.1-2 0.4-0.7 0.8-1.3 1.1-1.7q0.3-0.5 0.5-0.6c0.2-0.3 0.5-0.5 0.8-0.5 0.3 0 0.6 0.2 0.8 0.5zm0.8 5.1c-0.2-0.6-0.6-1.2-1-1.8q-0.3-0.6-0.6-1-0.3 0.4-0.6 1c-0.4 0.6-0.8 1.2-1 1.8v0.1c-0.2 0.4-0.4 0.9-0.4 1.3 0 0.4 0.1 0.7 0.3 1.1q0.2 0.4 0.5 0.6c0.3 0.2 0.6 0.3 1.2 0.3 0.6 0 0.9-0.1 1.2-0.3q0.3-0.2 0.5-0.6c0.2-0.4 0.3-0.7 0.3-1.1 0-0.4-0.2-0.9-0.4-1.3z"/><path class="a" d="m14.1 11.5c0.8-0.2 1.4 0.6 1 1.3-0.1 0.3-0.3 0.6-0.7 0.7-1 0.4-1.8 0.9-2.6 1.4h-0.1c-1.1 0.7-2.3 1.4-3.9 1.7-1.6 0.2-3.6 0-6.2-1-0.5-0.2-0.7-0.8-0.5-1.3 0.2-0.5 0.8-0.8 1.3-0.6 2.4 1 3.9 1.1 5.1 0.9 1.2-0.2 2.1-0.7 3.2-1.4 1.1-0.7 2.2-1.3 3.4-1.7z"/></svg>