<svg version="1.2" xmlns="http://www.w3.org/2000/svg" viewBox="0 0 96 96" width="96" height="96"><style></style><filter id="f0"><feFlood flood-color="#ffffff" flood-opacity="1" /><feBlend mode="normal" in2="SourceGraphic"/><feComposite in2="SourceAlpha" operator="in" /></filter><g filter="url(#f0)"><path fill-rule="evenodd" d="m79.1 67.4c0 7.7-6.3 14-14.1 14h-46c-7.7 0-14-6.3-14-14 0-7.8 6.3-14.1 14-14.1 0.7 0 1.5 0.1 2.2 0.3 2.7-9.2 11-15.6 20.8-15.6q0.4 0 0.7 0c3.3-4.7 8.8-7.7 14.7-7.7 9.8 0 17.8 8.1 17.8 17.9 0 2.8-0.6 5.5-1.8 7.9 3.4 2.6 5.7 6.7 5.7 11.3zm-30.6-28.4c6.9 2 12.3 7.5 14.3 14.6 0.8-0.2 1.6-0.3 2.2-0.3q1.9 0 3.8 0.5c0.8-1.8 1.3-3.7 1.3-5.6 0-7-5.7-12.8-12.7-12.8-3.4 0-6.6 1.3-8.9 3.6zm25.5 28.4c0-5-4-9-9-9q-0.6 0-1.5 0.3v2.3c0 1.4-1.2 2.5-2.6 2.5-1.4 0-2.5-1.1-2.5-2.5v-4.1c-1.4-8.1-8.2-13.8-16.4-13.8-8.1 0-14.9 5.7-16.3 13.8v4.1c0 1.4-1.2 2.5-2.6 2.5-1.4 0-2.5-1.1-2.5-2.5v-2.3c-0.7-0.2-1.2-0.3-1.6-0.3-4.9 0-8.9 4-8.9 9 0 4.9 4 8.9 8.9 8.9h46c5 0 9-4 9-8.9z"/><path  d="m57.4 25.2c1.4 0 2.5-1.1 2.5-2.5v-5.1c0-1.5-1.1-2.6-2.5-2.6-1.5 0-2.6 1.1-2.6 2.6v5.1c0 1.4 1.1 2.5 2.6 2.5z"/><path  d="m88 45.6h-5.1c-1.4 0-2.6 1.2-2.6 2.6 0 1.4 1.2 2.6 2.6 2.6h5.1c1.4 0 2.6-1.2 2.6-2.6 0-1.4-1.2-2.6-2.6-2.6z"/><path  d="m75.4 32.7q1.1 0 1.9-0.7l3.5-3.7c1.1-0.9 1.1-2.6 0-3.6-1-1-2.6-1-3.5 0l-3.7 3.6c-1.1 1-1.1 2.7 0 3.7 0.5 0.5 1.1 0.7 1.8 0.7z"/><path  d="m37.4 32q0.8 0.7 1.9 0.7c0.7 0 1.3-0.2 1.8-0.7 1.1-1 1.1-2.7 0-3.7l-3.7-3.6c-0.9-1-2.5-1-3.5 0-1.1 1-1.1 2.7 0 3.6z"/></g></svg>