<svg version="1.2" xmlns="http://www.w3.org/2000/svg" viewBox="0 0 96 96" width="96" height="96"><style></style><filter id="f0"><feFlood flood-color="#ffffff" flood-opacity="1" /><feBlend mode="normal" in2="SourceGraphic"/><feComposite in2="SourceAlpha" operator="in" /></filter><g filter="url(#f0)"><path  d="m71.4 28.9c-0.7 0-1.5 0.1-2.2 0.3-2.8-9.5-11.5-16.2-21.7-16.2-10.2 0-18.9 6.7-21.7 16.2-0.7-0.2-1.5-0.3-2.2-0.3-8 0-14.6 6.6-14.6 14.6 0 8.1 6.6 14.6 14.6 14.6 1.5 0 2.7-1.2 2.7-2.6 0-1.5-1.2-2.7-2.7-2.7-5.1 0-9.3-4.1-9.3-9.3 0-5.1 4.2-9.3 9.3-9.3 0.4 0 1 0.1 1.6 0.3v2.4c0 1.5 1.2 2.7 2.6 2.7 1.5 0 2.7-1.2 2.7-2.7v-4.3c1.4-8.3 8.5-14.3 17-14.3 8.5 0 15.6 6 17 14.3v4.3c0 1.5 1.2 2.7 2.7 2.7 1.4 0 2.6-1.2 2.6-2.7v-2.4c0.6-0.2 1.2-0.3 1.6-0.3 5.1 0 9.3 4.2 9.3 9.3 0 5.2-4.2 9.3-9.3 9.3-1.5 0-2.7 1.2-2.7 2.7 0 1.4 1.2 2.6 2.7 2.6 8 0 14.6-6.5 14.6-14.6 0-8-6.6-14.6-14.6-14.6z"/><path  d="m49.5 44.9c-1.5-0.3-2.9 0.6-3.2 2l-8 31.8c-0.4 1.5 0.5 2.9 1.9 3.3q0.3 0 0.7 0c1.2 0 2.2-0.8 2.5-2l8-31.8c0.4-1.5-0.5-2.9-1.9-3.3z"/><path  d="m60.1 52.9c-1.4-0.4-2.9 0.5-3.2 1.9l-4 16c-0.4 1.4 0.5 2.8 1.9 3.2q0.3 0.1 0.7 0.1c1.2 0 2.2-0.8 2.5-2l4-16c0.4-1.4-0.5-2.8-1.9-3.2z"/><path  d="m34.9 52.9c-1.5-0.4-2.9 0.5-3.3 1.9l-3.9 16c-0.4 1.4 0.5 2.8 1.9 3.2q0.3 0.1 0.6 0.1c1.2 0 2.3-0.8 2.6-2l4-16c0.4-1.4-0.5-2.8-1.9-3.2z"/></g></svg>