<svg version="1.2" xmlns="http://www.w3.org/2000/svg" viewBox="0 0 96 96" width="96" height="96"><style>.a{fill:#fff}</style><filter id="f0"><feFlood flood-color="#ffffff" flood-opacity="1" /><feBlend mode="normal" in2="SourceGraphic"/><feComposite in2="SourceAlpha" operator="in" /></filter><g filter="url(#f0)"><path fill-rule="evenodd" d="m86.5 40.1c0 8.3-6.6 14.9-14.9 14.9h-48.7c-8.3 0-14.9-6.6-14.9-14.9 0-8.2 6.6-14.9 14.9-14.9 0.7 0 1.5 0.2 2.3 0.3 2.8-9.7 11.6-16.5 22.1-16.5 10.4 0 19.2 6.8 22 16.5 0.8-0.1 1.6-0.3 2.3-0.3 8.3 0 14.9 6.7 14.9 14.9zm-5.4 0c0-5.2-4.2-9.4-9.5-9.4-0.4 0-0.9 0.1-1.6 0.2v2.5c0 1.5-1.2 2.7-2.7 2.7-1.5 0-2.7-1.2-2.7-2.7v-4.4c-1.5-8.5-8.7-14.6-17.3-14.6-8.7 0-15.9 6.1-17.4 14.6v4.4c0 1.5-1.2 2.7-2.7 2.7-1.5 0-2.7-1.2-2.7-2.7v-2.5c-0.7-0.1-1.2-0.2-1.6-0.2-5.3 0-9.5 4.2-9.5 9.4 0 5.3 4.2 9.5 9.5 9.5h48.7c5.3 0 9.5-4.2 9.5-9.5z"/><path  d="m35.1 63.1c-1.5 0-2.7-1.2-2.7-2.7 0-1.5 1.2-2.7 2.7-2.7 1.5 0 2.7 1.2 2.7 2.7 0 1.5-1.2 2.7-2.7 2.7z"/><path  d="m59.4 63.1c-1.5 0-2.7-1.2-2.7-2.7 0-1.5 1.2-2.7 2.7-2.7 1.5 0 2.7 1.2 2.7 2.7 0 1.5-1.2 2.7-2.7 2.7z"/><path  d="m47.3 71.3c-1.5 0-2.8-1.3-2.8-2.7 0-1.5 1.3-2.8 2.8-2.8 1.4 0 2.7 1.3 2.7 2.8 0 1.4-1.3 2.7-2.7 2.7z"/><path class="a" d="m59.4 79.4c-1.5 0-2.7-1.2-2.7-2.7 0-1.5 1.2-2.7 2.7-2.7 1.5 0 2.7 1.2 2.7 2.7 0 1.5-1.2 2.7-2.7 2.7z"/><path class="a" d="m47.3 87.5c-1.5 0-2.8-1.2-2.8-2.7 0-1.5 1.3-2.7 2.8-2.7 1.4 0 2.7 1.2 2.7 2.7 0 1.5-1.3 2.7-2.7 2.7z"/><path  d="m35.1 79.4c-1.5 0-2.7-1.2-2.7-2.7 0-1.5 1.2-2.7 2.7-2.7 1.5 0 2.7 1.2 2.7 2.7 0 1.5-1.2 2.7-2.7 2.7z"/></g></svg>