<svg version="1.2" xmlns="http://www.w3.org/2000/svg" viewBox="0 0 96 96" width="96" height="96"><style></style><filter id="f0"><feFlood flood-color="#ffffff" flood-opacity="1" /><feBlend mode="normal" in2="SourceGraphic"/><feComposite in2="SourceAlpha" operator="in" /></filter><g filter="url(#f0)"><path fill-rule="evenodd" d="m80.2 69.2c0 7.9-6.3 14.2-14.2 14.2h-46.7c-7.9 0-14.3-6.3-14.3-14.2 0-7.9 6.4-14.3 14.3-14.3 0.6 0 1.4 0.1 2.2 0.3 2.7-9.4 11.1-15.9 21.1-15.9q0.4 0 0.7 0c3.3-4.8 8.9-7.7 14.9-7.7 10 0 18.1 8.1 18.1 18.1 0 2.9-0.6 5.6-1.8 8.1 3.4 2.6 5.7 6.7 5.7 11.4zm-31-28.8c7 2.1 12.5 7.6 14.6 14.8 0.7-0.2 1.5-0.3 2.2-0.3q1.9 0 3.9 0.5c0.7-1.8 1.2-3.7 1.2-5.7 0-7.1-5.8-12.9-12.9-12.9-3.4 0-6.6 1.2-9 3.6zm25.8 28.8c0-5.1-4-9.1-9-9.1-0.4 0-0.9 0.1-1.6 0.3v2.3c0 1.4-1.2 2.6-2.6 2.6-1.4 0-2.6-1.2-2.6-2.6v-4.2c-1.4-8.1-8.3-14-16.6-14-8.3 0-15.2 5.9-16.6 14v4.2c0 1.4-1.2 2.6-2.6 2.6-1.4 0-2.6-1.2-2.6-2.6v-2.3c-0.6-0.2-1.1-0.3-1.5-0.3-5.1 0-9.1 4-9.1 9.1 0 5 4 9.1 9.1 9.1h46.7c5 0 9-4.1 9-9.1z"/><path  d="m58.2 26.4c1.4 0 2.6-1.2 2.6-2.6v-5.2c0-1.4-1.2-2.6-2.6-2.6-1.4 0-2.6 1.2-2.6 2.6v5.2c0 1.4 1.2 2.6 2.6 2.6z"/><path  d="m89.3 47.1h-5.2c-1.4 0-2.6 1.2-2.6 2.6 0 1.4 1.2 2.6 2.6 2.6h5.2c1.4 0 2.6-1.2 2.6-2.6 0-1.4-1.2-2.6-2.6-2.6z"/><path  d="m76.5 34q1.1 0 1.9-0.7l3.6-3.8c1.1-0.9 1.1-2.6 0-3.6-1-1.1-2.7-1.1-3.6 0l-3.8 3.6c-1 1-1 2.7 0 3.8 0.6 0.5 1.2 0.7 1.9 0.7z"/><path  d="m37.9 33.3q0.8 0.7 2 0.7c0.6 0 1.3-0.2 1.8-0.7 1-1.1 1-2.8 0-3.8l-3.8-3.6c-0.9-1.1-2.6-1.1-3.6 0-1 1-1 2.7 0 3.6z"/></g></svg>