<svg version="1.2" xmlns="http://www.w3.org/2000/svg" viewBox="0 0 96 96" width="96" height="96"><style></style><filter id="f0"><feFlood flood-color="#f3f3f3" flood-opacity="1" /><feBlend mode="normal" in2="SourceGraphic"/><feComposite in2="SourceAlpha" operator="in" /></filter><g filter="url(#f0)"><path fill-rule="evenodd" d="m67.9 28.7c-1.2-1.2-1.2-3.2 0-4.4l4.5-4.4c1.1-1.2 3.1-1.2 4.3 0 1.3 1.3 1.3 3.3 0 4.4l-4.3 4.4q-0.9 1-2.3 1c-0.8 0-1.6-0.3-2.2-1zm-50.6 22.8h-6.2c-1.7 0-3.1-1.4-3.1-3.1 0-1.7 1.4-3.1 3.1-3.1h6.2c1.7 0 3.1 1.4 3.1 3.1 0 1.7-1.4 3.1-3.1 3.1zm11.3 16.6c1.2 1.2 1.2 3.2 0 4.5l-4.5 4.3c-0.5 0.6-1.4 0.9-2.2 0.9-0.7 0-1.5-0.3-2.1-0.9-1.3-1.2-1.3-3.3 0-4.3l4.3-4.5c1.2-1.3 3.3-1.3 4.5 0zm-8.8-43.8c-1.3-1.1-1.3-3.1 0-4.4 1.2-1.2 3.2-1.2 4.3 0l4.5 4.4c1.2 1.2 1.2 3.2 0 4.4-0.6 0.7-1.4 1-2.2 1q-1.4 0-2.3-1zm25.4-6.9v-6.2c0-1.7 1.4-3.1 3.1-3.1 1.7 0 3.1 1.4 3.1 3.1v6.2c0 1.7-1.4 3.1-3.1 3.1-1.7 0-3.1-1.4-3.1-3.1zm43.3 30.9c0 1.7-1.4 3.1-3.1 3.1h-6.2c-1.7 0-3-1.4-3-3.1 0-1.7 1.3-3.1 3-3.1h6.2c1.7 0 3.1 1.4 3.1 3.1zm-11.7 24.2c1.2 1.2 1.2 3.1 0 4.3-0.6 0.6-1.4 1-2.2 1-0.8 0-1.5-0.4-2.2-1l-4.3-4.3c-1.2-1.2-1.2-3.3 0-4.3 1.1-1.3 3.1-1.3 4.3 0zm-25.4 6.8v6.2c0 1.7-1.3 3.1-3 3.1-1.8 0-3.1-1.4-3.1-3.1v-6.2c0-1.7 1.3-3.1 3.1-3.1 1.7 0 3 1.4 3 3.1zm-3.1-9.3c-11.9 0-21.6-9.7-21.6-21.7 0-12 9.7-21.7 21.6-21.7 12 0 21.7 9.7 21.7 21.7 0 12-9.7 21.7-21.6 21.7zm15.4-21.7c0-8.6-6.9-15.5-15.4-15.5-8.6 0-15.5 6.9-15.5 15.5 0 8.6 6.9 15.5 15.5 15.5 8.5 0 15.4-6.9 15.4-15.5z"/></g></svg>