<svg version="1.2" xmlns="http://www.w3.org/2000/svg" viewBox="0 0 96 96" width="96" height="96"><style>.a{fill:#fff}</style><path fill-rule="evenodd" class="a" d="m88.7 45.4c0 8.6-6.9 15.5-15.5 15.5h-13.9l-2 2.8h3.3c0.9 0 1.9 0.6 2.5 1.6 0.4 0.8 0.4 2-0.1 2.8l-5.7 8.5c-0.5 0.8-1.5 1.2-2.4 1.2q-0.8 0-1.5-0.4c-1.3-0.8-1.7-2.7-0.9-3.9l2.8-4.1h-3.2c-1 0-2-0.6-2.5-1.6-0.5-0.8-0.5-1.9 0.1-2.8l2.8-4.1h-7.3l-4.8 7.1h3.2c1 0 2 0.5 2.6 1.5 0.4 0.9 0.4 2-0.2 2.8l-8.4 12.7c-0.6 0.9-1.6 1.3-2.4 1.3q-0.9 0-1.6-0.4c-1.2-0.9-1.7-2.7-0.8-4l5.6-8.3h-3.2c-1 0-2-0.6-2.5-1.5-0.5-0.9-0.5-2 0.1-2.9l5.6-8.3h-15.9c-8.6 0-15.5-6.9-15.5-15.5 0-8.6 6.9-15.5 15.5-15.5 0.7 0 1.6 0.2 2.4 0.3 3-10.2 12.1-17.2 23-17.2 10.8 0 20 7 22.9 17.2 0.9-0.1 1.7-0.3 2.4-0.3 8.6 0 15.5 6.9 15.5 15.5zm-5.6 0c0-5.5-4.4-9.9-9.9-9.9-0.4 0-0.9 0.2-1.7 0.3v2.6c0 1.5-1.2 2.8-2.8 2.8-1.5 0-2.8-1.3-2.8-2.8v-4.5c-1.5-8.9-9-15.3-18-15.3-9 0-16.5 6.4-18.1 15.3v4.5c0 1.5-1.2 2.8-2.8 2.8-1.5 0-2.8-1.3-2.8-2.8v-2.6c-0.7-0.1-1.3-0.3-1.7-0.3-5.5 0-9.9 4.4-9.9 9.9 0 5.5 4.4 9.9 9.9 9.9h50.7c5.5 0 9.9-4.4 9.9-9.9z"/></svg>