<svg version="1.2" xmlns="http://www.w3.org/2000/svg" viewBox="0 0 24 24" width="24" height="24"><style>.a{fill:#fff}.b{opacity:.4;fill:#fff}.c{opacity:.8;fill:#fff}</style><path fill-rule="evenodd" class="a" d="m6.3 5.5c0-1.8 1.4-3.3 3.2-3.3 1.8 0 3.3 1.5 3.3 3.3 0 1.8-1.5 3.3-3.3 3.3h-6.5c-0.4 0-0.8-0.4-0.8-0.8 0.1-0.4 0.4-0.7 0.8-0.7h6.5c1 0 1.8-0.8 1.8-1.8-0.1-1-0.8-1.7-1.8-1.7-1 0-1.8 0.7-1.8 1.7l0.1 0.4c0 0.4-0.4 0.7-0.8 0.7-0.4 0-0.7-0.3-0.7-0.7z"/><path class="b" d="m3.3 14c0-0.4 0.3-0.8 0.7-0.8l14.5 0.1c2.3 0 4.3 1.9 4.3 4.2 0 2.3-2 4.3-4.3 4.3-2.3 0-4.3-2-4.3-4.3l0.1-0.5c0-0.4 0.3-0.8 0.7-0.8 0.4 0 0.8 0.4 0.8 0.8v0.5c0 1.5 1.2 2.8 2.7 2.8 1.5 0 2.8-1.3 2.8-2.8 0-1.5-1.3-2.8-2.8-2.8h-14.5c-0.4 0-0.8-0.3-0.8-0.7z"/><path class="c" d="m14.3 7.5c-0.1-2.3 1.9-4.3 4.2-4.3 2.3 0 4.2 2 4.2 4.3 0 2.3-1.9 4.3-4.2 4.3h-16.5c-0.4 0-0.8-0.4-0.8-0.8 0-0.4 0.4-0.7 0.8-0.7h16.5c1.5 0 2.7-1.3 2.7-2.8 0-1.5-1.2-2.8-2.7-2.8-1.5 0-2.8 1.3-2.8 2.8v0.5c0 0.4-0.3 0.8-0.7 0.8-0.4-0.1-0.8-0.4-0.8-0.8z"/></svg>